<svg width="143" height="34" viewBox="0 0 143 34" fill="none" xmlns="http://www.w3.org/2000/svg">
<g clip-path="url(#clip0_20_37)">
<path d="M16.2281 0.004458L15.0629 0.683013C11.8932 2.66555 9.02863 5.11366 6.59524 7.94346L5.51899 9.31595C9.71914 5.4795 14.6706 2.38499 20.2406 0.94819C20.535 0.872226 21.513 0.594932 21.748 0.62802C22.0888 0.675557 23.2624 1.12529 23.6172 1.28514C23.6992 1.32196 23.8176 1.35504 23.8518 1.44685C21.6586 1.78334 19.4578 2.39431 17.3863 3.18146C13.3702 4.70774 9.70603 7.08082 6.59478 10.0136L9.41625 8.32981C14.6969 5.37977 20.7569 4.02313 26.8245 4.23844C27.4003 4.34796 28.0632 4.21607 28.6001 4.42579L29.7452 5.68316L26.7772 5.44875C24.6869 5.44175 22.585 5.52518 20.5163 5.8309C15.834 6.52344 11.3286 8.28833 7.43696 10.9443C10.0543 9.7983 12.7859 8.85457 15.6125 8.35218C17.6124 7.99659 19.6526 7.87682 21.6857 7.8894C25.2511 7.91177 28.8061 8.45424 32.2221 9.43386C32.5081 9.88918 32.6551 10.4125 32.8789 10.8977C30.6932 10.2494 28.4747 9.71721 26.2079 9.41475C20.4147 8.64252 14.6004 9.20364 9.21589 11.4816L8.7 11.7356C10.412 11.2943 12.1464 10.9159 13.9146 10.7588C19.6676 10.2466 27.4213 11.435 32.6767 13.8696C32.8812 13.9642 33.6733 14.3273 33.7684 14.4587C33.8817 14.6153 33.9378 15.3442 33.9542 15.5777C33.9617 15.6811 34.0001 16.3145 33.9795 16.3471C33.9486 16.3965 33.9093 16.4021 33.8601 16.3713C23.2095 12.088 10.4401 10.8996 0.0483201 16.5317C0.00618759 11.2496 2.8094 6.4498 6.92622 3.29098C7.70895 2.69072 8.55019 2.14358 9.44668 1.72694C7.58817 3.76913 5.94079 6.0066 4.59255 8.41742C4.56961 8.45844 4.48955 8.53393 4.55931 8.57029C5.14495 7.82415 5.74838 7.08688 6.38271 6.38176C7.98702 4.59822 9.81932 2.85942 11.7701 1.45571C12.932 0.620098 13.4666 0.220235 14.9478 0.0561885C15.3743 0.00911841 15.7984 -0.00998927 16.2277 0.00399196L16.2281 0.004458Z" fill="white"/>
<path d="M25.0206 31.8032C26.6175 29.8696 28.1595 27.8283 29.3477 25.6123C29.4006 25.514 29.5138 25.3499 29.4872 25.239C27.5388 27.9048 25.2065 30.3188 22.584 32.334C22.2048 32.6253 21.1009 33.5168 20.7278 33.652C20.2203 33.8361 18.8342 33.9717 18.2645 33.9936C18.213 33.9954 18.0866 34.0225 18.0997 33.9456C22.1013 31.5744 25.6517 28.5167 28.4086 24.7697L28.5991 24.4006C24.7252 28.4803 19.6782 31.4257 14.2277 32.9072C13.7095 33.048 12.7657 33.3472 12.2704 33.3831C12.0607 33.3984 10.2462 32.6807 10.2434 32.5712C10.2878 32.4957 10.3421 32.5148 10.4058 32.5013C11.2372 32.3242 12.0789 32.2124 12.909 32.0134C18.4718 30.6791 23.7754 27.7579 27.734 23.6559L25.9527 24.8387C20.1239 28.4705 13.9506 29.8318 7.0853 29.5224C6.78148 29.5089 5.6837 29.5256 5.49316 29.3844C5.21602 29.0153 4.86164 28.7021 4.58451 28.3335C4.55267 28.2911 4.40568 28.1112 4.44313 28.0786L7.31984 28.3573C14.1022 28.6914 21.0218 26.8981 26.5646 23.0039C25.1803 23.6256 23.7693 24.1843 22.3087 24.6094C15.7 26.5323 8.31698 26.3016 1.75507 24.306C1.67362 24.1354 1.0112 22.9778 1.07627 22.9107C2.09635 23.2075 3.12438 23.4932 4.16224 23.7258C10.616 25.1728 17.5243 25.0969 23.7829 22.8645L25.6292 22.0727C24.3039 22.3822 22.9777 22.6828 21.6243 22.8571C15.1251 23.6945 7.45935 22.5863 1.4653 19.9387C1.27429 19.8544 0.243452 19.3995 0.197575 19.2919L0.000488281 17.4631C3.95205 18.9759 8.07495 20.0659 12.2835 20.6224C16.8446 21.2255 21.3523 21.2553 25.8722 20.3353C28.7077 19.7584 31.4702 18.81 34.0005 17.4165C33.7674 22.9246 30.6936 27.9416 26.2322 31.0762C26.0936 31.1736 25.0993 31.8652 25.0211 31.8022L25.0206 31.8032Z" fill="white" fill-opacity="0.7"/>
</g>
<path d="M142.732 3.54004V31.2H139.822V16.05H136.672V29.85H133.762V4.11004H136.672V13.47H139.822V3.54004H142.732ZM123.232 24.21H119.782V13.59H127.402V8.31004H119.782V5.88004H130.222V15.96H122.602V21.78H124.132C126.742 21.78 129.262 21.66 131.812 21.27L132.112 23.67C129.892 24.03 126.982 24.21 123.232 24.21Z" fill="white"/>
<path d="M118.751 13.38V15.96H114.491V31.2H111.521V3.54004H114.491V13.38H118.751ZM97.4812 5.85004V21.06H98.9812C102.881 21.06 106.061 20.82 109.331 20.28L109.661 22.83C106.091 23.46 102.941 23.67 98.4412 23.67H94.5112V5.85004H97.4812Z" fill="white"/>
<path d="M88.7705 21.6597V31.1697H70.6505V21.6597H88.7705ZM85.8305 28.6797V24.1497H73.5905V28.6797H85.8305ZM67.0205 16.6497H92.4005V19.1697H67.0205V16.6497ZM79.7105 3.92969C84.9605 3.92969 88.5905 5.81969 88.5905 8.96969V9.80969C88.5905 12.9597 84.9605 14.8497 79.7105 14.8497C74.4605 14.8497 70.8305 12.9597 70.8305 9.80969V8.96969C70.8305 5.81969 74.4605 3.92969 79.7105 3.92969ZM79.7105 12.3897C83.1905 12.3897 85.6805 11.3097 85.6805 9.68969V9.08969C85.6805 7.46969 83.1905 6.38969 79.7105 6.38969C76.2305 6.38969 73.7405 7.46969 73.7405 9.08969V9.68969C73.7405 11.3097 76.2305 12.3897 79.7105 12.3897Z" fill="white"/>
<path d="M64.1301 31.2H61.1601V3.54004H64.1301V31.2ZM49.5801 5.40004C53.6301 5.40004 56.5701 8.16004 56.5701 13.44V16.56C56.5701 21.84 53.6301 24.57 49.5801 24.57C45.5301 24.57 42.5901 21.84 42.5901 16.56V13.44C42.5901 8.13004 45.5301 5.40004 49.5801 5.40004ZM49.5801 21.9C51.7401 21.9 53.7201 20.37 53.7201 16.14V13.86C53.7201 9.63004 51.7101 8.10004 49.5801 8.10004C47.4201 8.10004 45.4401 9.63004 45.4401 13.86V16.14C45.4401 20.37 47.4201 21.9 49.5801 21.9Z" fill="white"/>
<defs>
<clipPath id="clip0_20_37">
<rect width="34" height="34" fill="white"/>
</clipPath>
</defs>
</svg>
